<?xml version="1.0" encoding="UTF-8"?>
<svg width="512" height="512" viewBox="0 0 512 512" fill="none" xmlns="http://www.w3.org/2000/svg">
  <!-- Main Circle -->
  <circle cx="256" cy="256" r="256" fill="#0A0A0A"/>
  
  <!-- Apple Shape -->
  <path d="M256 96C256 96 376 176 376 256C376 336 256 416 256 416C256 416 136 336 136 256C136 176 256 96 256 96Z" fill="#737cde"/>
  
  <!-- Bite -->
  <path d="M256 176C256 176 336 226 336 256C336 286 256 336 256 336C256 336 176 286 176 256C176 226 256 176 256 176Z" fill="#0A0A0A"/>
  
  <!-- Stem -->
  <path d="M256 96L256 76" stroke="#737cde" stroke-width="24" stroke-linecap="round"/>
</svg> 